<?xml version="1.0" encoding="UTF-8"?>
<svg width="70px" height="70px" viewBox="0 0 70 70" version="1.1" xmlns="http://www.w3.org/2000/svg" xmlns:xlink="http://www.w3.org/1999/xlink">
    <!-- Generator: Sketch 50.2 (55047) - http://www.bohemiancoding.com/sketch -->
    <title>Configuration</title>
    <desc>Created with Sketch.</desc>
    <defs></defs>
    <g id="Configuration" stroke="none" stroke-width="1" fill="none" fill-rule="evenodd">
        <g id="Usagi" transform="translate(-2.400000, -4.200000)">
            <path d="M19.0538993,34.9318222 C18.9971778,34.0527084 18.9509775,33.1398831 18.915548,32.1953026 C18.4937062,20.9486461 17.8891823,15.2401703 21.9313284,14.6724554 C25.9734745,14.1047405 25.5349233,19.6066236 27.3564684,31.605056 C27.3947305,31.8570863 27.4314022,32.1057929 27.4665053,32.3512141 C31.1904151,31.6026329 34.798705,31.3574831 37.6681461,31.607789 C39.4185426,31.7604789 41.4438764,31.9950956 43.6026774,32.3392223 C43.795761,31.6179478 44.0110721,30.8641131 44.2496613,30.0763985 C47.5573241,19.1559779 47.8330658,13.9700216 51.698485,15.0648934 C55.5639043,16.1597653 54.2455764,21.392065 52.397595,31.8082953 C52.2531841,32.6222737 52.1032018,33.4093408 51.9480451,34.1680573 C60.4175691,36.6157743 68.3134175,41.0576692 68.3134175,48.9213847 C68.3134175,61.5020335 56.7650276,66.2349803 37.6681461,66.2349803 C18.5712646,66.2349803 7.0228747,61.5020335 7.0228747,48.9213847 C7.0228747,42.4272375 12.4078966,37.7816422 19.0538993,34.9318222 Z" id="Head" stroke="#461B14" stroke-width="1.48118812" fill="#F4BDC9" fill-rule="evenodd"></path>
            <path d="M36.9138258,58.5200019 C42.1642009,58.1367522 45.8672783,55.3233043 44.6173164,48.8049877 C43.3673545,42.2866712 41.0373234,38.6073639 36.6211783,38.6073639 C32.2050331,38.6073639 29.7795792,43.4477529 28.9734654,49.1522233 C28.1673515,54.8566936 31.6634507,58.9032516 36.9138258,58.5200019 Z" id="face" fill="#FFF1F1" fill-rule="evenodd" transform="translate(36.859613, 48.576231) rotate(-2.000000) translate(-36.859613, -48.576231) "></path>
            <path d="M36.3344229,42.3246297 C37.215929,42.3246297 37.9305308,42.3246297 37.9305308,41.6821867 C37.9305308,41.0397437 37.215929,41.0397437 36.3344229,41.0397437 C35.4529169,41.0397437 34.7383151,41.0397437 34.7383151,41.6821867 C34.7383151,42.3246297 35.4529169,42.3246297 36.3344229,42.3246297 Z" id="nose" stroke="#461E18" stroke-width="1.23432343" fill="#481E1F" fill-rule="evenodd" transform="translate(36.334423, 41.682187) rotate(-5.000000) translate(-36.334423, -41.682187) "></path>
            <g id="eyes" stroke-width="1" fill-rule="evenodd" transform="translate(24.260840, 37.904139)" stroke="#461E18" stroke-linecap="square">
                <path d="M19.898145,0.10707384 L24.3672471,2.89099368" id="Line-2" stroke-width="1.23432343"></path>
                <path d="M4.36269489,0.32122152 L0.106407192,2.46269832" id="Line" stroke-width="1.23432343"></path>
            </g>
            <g id="Mouth" stroke-width="1" fill-rule="evenodd" transform="translate(30.858086, 42.615388)">
                <path d="M2.50502878,5.19913387 L5.64254421,3.83833684 L8.81581533,5.39310733 L8.01057126,9.40959778 L6.33338859,10.6012157 L4.20518402,10.1031857 C3.63323323,9.28946299 3.2525185,8.60932857 3.06303985,8.0627825 C2.87356119,7.51623643 2.6875575,6.56168689 2.50502878,5.19913387 Z" id="Path-5" fill="#FF96A5"></path>
                <path d="M0,2.56977216 C0.543448469,3.2647167 1.317423,5.22701086 3.4109967,4.95684115 C4.02529178,4.87756812 4.7434674,4.41316111 5.56552356,3.56362013" id="Path-2" stroke="#461E18" stroke-width="1.23432343"></path>
                <path d="M5.53317401,2.56977216 C6.07662248,3.2647167 6.85059701,5.22701086 8.94417071,4.95684115 C9.55846579,4.87756812 10.2766414,4.41316111 11.0986976,3.56362013" id="Path-2-Copy" stroke="#461E18" stroke-width="1.23432343" transform="translate(8.315936, 3.775986) scale(-1, 1) translate(-8.315936, -3.775986) "></path>
                <path d="M2.54559518,5.13954432 C2.88874015,8.80754498 4.00449216,10.6415453 5.89285121,10.6415453 C7.78121026,10.6415453 8.72538978,8.80754498 8.72538978,5.13954432" id="Path-3" stroke="#461E18" stroke-width="1.23432343"></path>
                <path d="M5.44379197,0.10707384 L5.69065665,3.53343672" id="Line-3" stroke="#461E18" stroke-width="1.23432343" stroke-linecap="square"></path>
            </g>
            <path d="M34.9015591,55.2501014 C35.692647,55.6413929 36.3100658,55.8370386 36.7538153,55.8370386 C37.1975649,55.8370386 37.8149836,55.6413929 38.6060715,55.2501014" id="chin" stroke="#461E18" stroke-width="1.23432343"></path>
            <g id="cheek" stroke-width="1" fill-rule="evenodd" transform="translate(10.640719, 42.829536)" fill="#FDAAAA">
                <ellipse id="Oval-5" transform="translate(7.056221, 7.299117) rotate(4.000000) translate(-7.056221, -7.299117) " cx="7.05622117" cy="7.29911666" rx="6.59724593" ry="6.85272575"></ellipse>
                <ellipse id="Oval-5-Copy" transform="translate(44.691535, 6.950577) rotate(5.000000) translate(-44.691535, -6.950577) " cx="44.691535" cy="6.9505774" rx="6.27802435" ry="6.42443039"></ellipse>
            </g>
        </g>
        <g id="Gear" transform="translate(53.062228, 53.625204) rotate(104.000000) translate(-53.062228, -53.625204) translate(39.962228, 39.925204)" fill="#FFFFFF" stroke="#461B14" stroke-width="1.64472614">
            <path d="M18.637026,19.5091559 C17.81224,20.3293315 16.8139201,20.9735785 15.7023688,21.38129 C15.7055314,21.4357604 15.7071346,21.4906492 15.7071346,21.5459124 C15.7071346,23.0901196 14.4553074,24.3419469 12.9111002,24.3419469 C11.366893,24.3419469 10.1150658,23.0901196 10.1150658,21.5459124 C10.1150658,21.4906492 10.116669,21.4357604 10.1198316,21.38129 C8.97980374,20.9631335 7.95888331,20.2961666 7.12212717,19.4457749 C6.68251039,19.7337362 6.15684467,19.9011863 5.59206888,19.9011863 C4.0478617,19.9011863 2.79603444,18.649359 2.79603444,17.1051519 C2.79603444,15.8354469 3.64236276,14.7634126 4.80166873,14.4223995 C4.7805104,14.1818864 4.76970581,13.9383839 4.76970581,13.6923451 C4.76970581,12.997187 4.85595765,12.3222759 5.01829231,11.6778321 C4.04738249,11.2394335 3.37168859,10.2627402 3.37168859,9.12823008 C3.37168859,7.5840229 4.62351585,6.33219564 6.16772303,6.33219564 C6.91240787,6.33219564 7.58909701,6.62331983 8.09018805,7.09796581 C8.71647243,6.6346983 9.41114492,6.25939053 10.1561679,5.99017117 C10.1291481,5.83411058 10.1150658,5.67361613 10.1150658,5.50983257 C10.1150658,3.96562539 11.366893,2.71379813 12.9111002,2.71379813 C14.4553074,2.71379813 15.7071346,3.96562539 15.7071346,5.50983257 C15.7071346,5.67361613 15.6930523,5.83411058 15.6660325,5.99017117 C16.4923009,6.28874914 17.2566385,6.71781521 17.9344398,7.2526396 C18.4087954,6.882009 19.0058431,6.66114087 19.6544774,6.66114087 C21.1986846,6.66114087 22.4505118,7.91296813 22.4505118,9.45717531 C22.4505118,10.5646598 21.8066264,11.5217569 20.8727856,11.9745363 C20.9905274,12.5284437 21.0524946,13.1031213 21.0524946,13.6923451 C21.0524946,13.9562283 21.0400659,14.217194 21.0157648,14.4746831 C22.0922752,14.8635816 22.8616934,15.8945131 22.8616934,17.1051519 C22.8616934,18.649359 21.6098661,19.9011863 20.0656589,19.9011863 C19.5436905,19.9011863 19.0551282,19.7581581 18.637026,19.5091559 Z" id="Combined-Shape-Copy"></path>
            <ellipse id="Oval-3" cx="12.7877457" cy="13.651227" rx="4.39964243" ry="4.35852427"></ellipse>
        </g>
    </g>
</svg>