<?xml version="1.0" encoding="UTF-8"?>
<svg width="70px" height="70px" viewBox="0 0 70 70" version="1.1" xmlns="http://www.w3.org/2000/svg" xmlns:xlink="http://www.w3.org/1999/xlink">
    <!-- Generator: Sketch 50.2 (55047) - http://www.bohemiancoding.com/sketch -->
    <title>Chibimaruko</title>
    <desc>Created with Sketch.</desc>
    <defs></defs>
    <g id="Chibimaruko" stroke="none" stroke-width="1" fill="none" fill-rule="evenodd">
        <g transform="translate(1.115538, 6.135458)" id="Group-4">
            <g>
                <path d="M34.2771408,48.8047809 C40.9449921,48.8047809 47.6317356,43.3570038 58.659318,43.3570038 C60.5273066,43.3570038 68.1923515,45.9182228 67.9344247,45.0423212 C67.2472729,42.7088004 65.025212,38.7346436 63.8842896,27.3889344 C63.6364902,24.9247351 61.429513,15.1164383 59.7606549,12.6442579 C58.0917969,10.1720775 55.3439047,5.87944697 51.5290161,3.76324885 C47.7141274,1.64705073 37.5086436,0.0286987509 32.2115811,0.0286987509 C14.5678752,0.0286987509 1.67330677,14.8703452 1.67330677,30.521675 C1.67330677,36.7638606 0.764446977,42.5112709 0.0672037843,46.0844663 C-0.0407200852,46.6375488 4.08363749,45.1768372 5.18836454,45.0423212 C8.77971799,44.6050238 13.1407956,44.5898128 15.6460173,45.0423212 C22.1587104,46.2186837 28.4355359,48.8047809 34.2771408,48.8047809 Z" id="Oval-11" fill="#000000"></path>
                <path d="M33.4661355,57.2378668 C41.5065828,57.2378668 51.9923908,54.8214568 56.7761287,49.6187208 C58.7621362,47.4587628 56.3176838,43.5740453 56.7761287,40.0341484 C57.1914607,36.8271494 58.8446215,28.4409561 58.8446215,25.6905993 C58.8446215,12.5918649 48.9229063,7.52988048 34.5202618,7.52988048 C25.7548821,7.52988048 17.3105016,8.71767968 12.0721067,14.8828426 C9.59090396,17.8030156 7.72111976,23.3863075 7.72111976,27.6244932 C7.72111976,29.3071759 7.92337353,29.7311085 8.44196706,31.2364236 C10.9670815,38.5660426 7.34254412,45.5467684 10.9617577,49.6187208 C15.7424834,54.9974823 25.2690415,57.2378668 33.4661355,57.2378668 Z" id="Oval-10" stroke="#FFAAAA" stroke-width="0.5" fill="#FFCCCC"></path>
                <circle id="Oval-12" stroke="#000000" stroke-width="0.5" fill="#000000" cx="41.1354582" cy="34.7211155" r="3.76494024"></circle>
                <path d="M11.4178689,23.1545392 C12.6125392,25.176518 13.7930433,27.2010753 14.9593813,29.2282113 L17.5906255,20.0494499 L22.754691,26.9208495 L25.3284745,16.4421091 L29.3831506,24.5587699 L35.1849729,14.1255317 L40.7501254,24.5587699 L45.3765638,16.4421091 L47.5111428,25.9664564 L53.5086728,19.0138442 L53.5086728,27.6621312 L56.5876551,24.5587699 L57.5355439,36.1877182 L60.7555459,20.0494499 L54.3922019,8.82769991 L38.4477157,4.01023254 L20.8089926,4.01023254 L11.4178689,11.5641642 L8.92430279,19.0138442 C9.39200991,19.7523287 10.2231986,21.1325604 11.4178689,23.1545392 Z" id="Path-3" fill="#000000"></path>
                <circle id="Oval-12" stroke="#000000" stroke-width="0.5" fill="#000000" cx="23.2868526" cy="34.7211155" r="3.76494024"></circle>
                <circle id="Oval-13" stroke="#FFFFFF" stroke-width="0.5" fill="#FFFFFF" cx="23.2868526" cy="33.3266932" r="1.53386454"></circle>
                <circle id="Oval-13" stroke="#FFFFFF" stroke-width="0.5" fill="#FFFFFF" cx="41.1354582" cy="33.3266932" r="1.53386454"></circle>
                <path d="M7.41243937,45.5601418 C10.1155263,45.7805852 11.1773796,42.875634 11.1773796,39.5641259 C11.1773796,36.2526177 10.1100543,33.5681099 8.03073523,33.5681099 C7.53785282,33.5681099 6.57091741,33.0133044 5.04192144,33.5681099 C4.27498602,33.8463971 3.89943375,34.4441567 3.64749913,35.1456779 C3.19610501,36.4026016 3.87565888,38.1144734 3.87565888,39.7642957 C3.87565888,42.3241354 4.70935247,45.3396984 7.41243937,45.5601418 Z" id="Oval-14" fill="#FFCCCC"></path>
                <path d="M58.4288608,45.5392004 C61.1952647,45.5392004 62.5608572,42.8930446 62.5608572,39.73556 C62.5608572,38.3010362 63.7320325,36.5075286 63.0278884,35.3672944 C62.1821635,33.9977956 60.2893812,33.9977956 59.2629482,33.772585 C57.7882099,33.4490114 55.498008,36.0179284 55.498008,39.175413 C55.498008,42.3328975 55.6624569,45.5392004 58.4288608,45.5392004 Z" id="Oval-15" fill="#FFCCCC"></path>
                <path d="M12.732763,28.6778088 C14.895274,26.017727 16.7530816,24.2809207 18.3061857,23.46739 C19.8592897,22.6538593 21.3335891,23.4303335 22.7290837,25.7968127" id="Line-13" stroke="#000000" stroke-width="0.836653386" stroke-linecap="square"></path>
                <path d="M41.2749004,24.8359757 C43.6093007,23.0542256 45.3078978,22.4826589 46.3706916,23.1212756 C47.4334854,23.7598923 48.709656,25.6120701 50.1992032,28.6778088" id="Line-14" stroke="#000000" stroke-width="0.836653386" stroke-linecap="square"></path>
                <g id="cheek" transform="translate(11.992032, 42.390438)" fill="#FF495F">
                    <circle id="Oval-16" cx="4.32270916" cy="4.32270916" r="4.32270916"></circle>
                    <circle id="Oval-16" cx="38.625498" cy="4.32270916" r="4.32270916"></circle>
                </g>
                <path d="M33.2608404,53.7317178 C34.8893358,53.7317178 36.6770983,53.1479319 37.4888125,52.3211053 C38.3005266,51.4942786 39.2628141,49.6952704 38.8769463,47.9587978 C38.7180751,47.2438496 27.6845207,47.240999 27.6324623,47.87382 C27.4504409,50.0864709 28.387118,51.9071884 29.2493524,52.490031 C30.1115868,53.0728735 31.6323451,53.7317178 33.2608404,53.7317178 Z" id="Oval-17" fill="#FF3E56"></path>
            </g>
        </g>
        <g id="Gear" transform="translate(55.806854, 14.481256) rotate(15.000000) translate(-55.806854, -14.481256) translate(44.651475, 2.768109)" fill="#FFFFFF" stroke="#461B14" stroke-width="1.40761874">
            <path d="M15.9502706,16.6966723 C15.2443876,17.3986095 14.3899877,17.9499805 13.4386802,18.2989153 C13.4413868,18.3455331 13.4427589,18.392509 13.4427589,18.4398054 C13.4427589,19.7613963 12.3713979,20.8327573 11.0498071,20.8327573 C9.72821627,20.8327573 8.65685523,19.7613963 8.65685523,18.4398054 C8.65685523,18.392509 8.65822737,18.3455331 8.66093401,18.2989153 C7.68525512,17.9410412 6.81151286,17.3702258 6.09538537,16.6424284 C5.71914472,16.8888766 5.26926015,17.0321867 4.7859037,17.0321867 C3.46431289,17.0321867 2.39295185,15.9608257 2.39295185,14.6392349 C2.39295185,13.5525734 3.11727159,12.635086 4.10944941,12.3432341 C4.09134131,12.1373939 4.08209434,11.9289953 4.08209434,11.718426 C4.08209434,11.1234834 4.15591192,10.545869 4.29484405,9.99432966 C3.46390277,9.6191316 2.88561841,8.78324057 2.88561841,7.81228399 C2.88561841,6.49069317 3.95697945,5.41933214 5.27857026,5.41933214 C5.91589967,5.41933214 6.49503579,5.66848721 6.92388842,6.07470716 C7.45988624,5.67822533 8.05441318,5.35702277 8.69203201,5.12661468 C8.6689074,4.99305213 8.65685523,4.85569492 8.65685523,4.71552277 C8.65685523,3.39393195 9.72821627,2.32257092 11.0498071,2.32257092 C12.3713979,2.32257092 13.4427589,3.39393195 13.4427589,4.71552277 C13.4427589,4.85569492 13.4307068,4.99305213 13.4075821,5.12661468 C14.1147339,5.38214898 14.7688829,5.74935993 15.3489708,6.20708283 C15.7549422,5.88988317 16.2659182,5.70085588 16.8210439,5.70085588 C18.1426347,5.70085588 19.2139958,6.77221692 19.2139958,8.09380773 C19.2139958,9.04163481 18.6629343,9.86075459 17.863718,10.2482604 C17.964486,10.7223152 18.0175198,11.214146 18.0175198,11.718426 C18.0175198,11.9442672 18.0068829,12.1676115 17.9860851,12.3879804 C18.9074034,12.7208144 19.5659004,13.6031245 19.5659004,14.6392349 C19.5659004,15.9608257 18.4945394,17.0321867 17.1729486,17.0321867 C16.7262283,17.0321867 16.3080982,16.9097778 15.9502706,16.6966723 Z" id="Combined-Shape-Copy"></path>
            <ellipse id="Oval-3" cx="10.9442357" cy="11.6832355" rx="3.76538012" ry="3.73018965"></ellipse>
        </g>
    </g>
</svg>