<?xml version="1.0" encoding="UTF-8"?>
<svg width="70px" height="70px" viewBox="0 0 70 70" version="1.1" xmlns="http://www.w3.org/2000/svg" xmlns:xlink="http://www.w3.org/1999/xlink">
    <!-- Generator: Sketch 50.2 (55047) - http://www.bohemiancoding.com/sketch -->
    <title>Doraemon</title>
    <desc>Created with Sketch.</desc>
    <defs></defs>
    <g id="Doraemon" stroke="none" stroke-width="1" fill="none" fill-rule="evenodd">
        <g transform="translate(-0.313684, -0.313684)">
            <g id="Group-3" transform="translate(7.874662, 3.405259)">
                <g id="Group-2" transform="translate(10.854264, 0.000000)">
                    <path d="M16.0581437,1.49645182 L16.0581437,8.08083981" id="Line-2" stroke="#FFF253" stroke-width="1.15407113" stroke-linecap="square"></path>
                    <path d="M0.0952128407,0.0997634544 L15.9005444,1.29692491" id="Line-11" stroke="#FFF253" stroke-width="1.15407113" stroke-linecap="square"></path>
                    <path d="M32.4675787,0.299290363 L16.2813958,1.29692491" id="Line-12" stroke="#FFF253" stroke-width="1.15407113" stroke-linecap="square"></path>
                    <ellipse id="Oval-9" fill="#FFF253" cx="15.9957572" cy="10.1758723" rx="5.1414934" ry="2.59384981"></ellipse>
                </g>
                <g id="Group" transform="translate(0.000000, 10.428606)">
                    <path d="M25.7422801,48.5734582 C35.0422384,48.5734582 43.2658146,47.8319397 43.9818862,46.2470265 C44.4239272,45.2686374 47.5603366,43.066392 49.9831977,40.0844923 C51.7758004,37.8782735 53.0091612,34.9124305 53.3500762,33.4333548 C54.0506476,30.3938923 54.2713192,27.7366791 54.2713192,26.0118647 C54.2713192,23.3638896 54.1115962,20.2902782 53.3500762,17.8811787 C52.3016758,14.5645213 51.0450506,11.2306948 48.8122765,8.61546216 C46.9270165,6.4072704 44.214069,4.70319762 41.6816792,3.18448317 C37.4986191,0.675835408 30.6589522,0 25.3635969,0 C10.3080104,0 -7.01337191e-14,10.9451262 -7.10542736e-14,25.4012667 C-7.10542736e-14,29.3875668 0.531277737,35.8839165 3.02221092,40.0844923 C5.5131441,44.285068 9.28123356,45.5561256 9.61692775,46.2470265 C9.6601203,46.3359222 10.5300227,47.2150674 10.6198602,47.2603531 C13.9636809,48.9459225 15.4095522,48.5734582 25.7422801,48.5734582 Z" id="Path" fill="#56A1FF"></path>
                    <path d="M31.4660448,46.0066321 C38.4533062,46.0066321 40.7845395,46.424955 42.8795294,42.6569612 C43.8361943,40.9363288 47.2901017,36.0718342 48.5243077,27.2442749 C48.6968569,26.0101309 48.2888199,23.4104095 47.2726072,21.1541617 C46.3563599,19.1198622 44.886611,17.3886491 43.9380319,16.7710372 C42.5912484,15.8941575 39.7809773,14.5249601 36.9631647,14.5249601 C33.8159102,14.5249601 30.4707217,13.5366789 26.3313776,13.1713181 C22.5300084,12.8357888 19.2505384,13.8719304 15.7422102,14.9037958 C14.5555291,15.252821 12.583351,14.8836513 11.5778048,15.4266193 C7.59206911,17.5788098 5.32071757,21.3304385 5.32071757,28.8235239 C5.32071757,29.6162707 5.12655075,33.4771211 6.55287843,37.5487034 C7.97920612,41.6202856 11.5246012,44.1563913 12.003855,44.6564281 C14.8405473,47.6161348 18.860861,45.9497324 24.9206978,46.0066321 C25.241725,46.0096464 31.1350995,46.0066321 31.4660448,46.0066321 Z" id="Oval-3" fill="#FFFFFF"></path>
                    <path d="M25.7540243,48.9506016 C37.0362317,49.0747498 42.9766637,49.0747498 43.5753203,48.9506016 C44.3739202,48.7849897 45.0895299,48.050898 45.0895299,47.6783575 C45.0895299,47.305817 45.0859106,45.910546 44.0606382,45.6946728 C41.3205304,45.1177374 35.2183258,44.8177399 25.7540243,44.7946805 C16.4619641,44.561287 10.7304519,44.7337872 8.55948774,45.3121811 C7.59419691,45.5693563 7.61616645,46.4813765 7.69706735,46.9301666 C7.75625098,47.2584823 8.10897659,47.8969722 8.85219384,48.2125933 C9.347672,48.4230073 14.9816155,48.6690101 25.7540243,48.9506016 Z" id="Oval-4" fill="#FF2C46"></path>
                    <g id="Bell" transform="translate(21.282870, 46.609486)">
                        <ellipse id="Oval-5" stroke="#FF9634" stroke-width="0.5" fill="#FFE159" cx="4.68223146" cy="4.57581711" rx="4.68223146" ry="4.57581711"></ellipse>
                        <path d="M0.425657405,4.46940276 C1.99991504,4.63491856 3.42515792,4.71767647 4.70138604,4.71767647 C5.97761417,4.71767647 7.40285705,4.63491856 8.97711468,4.46940276" id="Line-9" stroke="#FF9634" stroke-width="0.5" stroke-linecap="square"></path>
                        <path d="M4.63427006,7.31356815 L4.63427006,8.86141326" id="Line-10" stroke="#FF9634" stroke-width="0.5" stroke-linecap="square"></path>
                        <ellipse id="Oval-7" fill="#FF9634" cx="4.68223146" cy="6.91693284" rx="1" ry="1"></ellipse>
                    </g>
                    <ellipse id="Oval" fill="#FFFFFF" transform="translate(19.603652, 15.585826) rotate(-4.000000) translate(-19.603652, -15.585826) " cx="19.6036518" cy="15.5858265" rx="6.81051849" ry="9.43352654"></ellipse>
                    <ellipse id="Oval-Copy" fill="#FFFFFF" transform="translate(32.515969, 15.585826) rotate(1.000000) translate(-32.515969, -15.585826) " cx="32.5159692" cy="15.5858265" rx="6.81051849" ry="9.43352654"></ellipse>
                    <g id="left-cheek" transform="translate(0.638486, 22.347014)" stroke="#07006F" stroke-linecap="square" stroke-width="0.5">
                        <path d="M15.6545487,5.23974129 L3.71286323,0.310013791" id="Line-3"></path>
                        <path d="M15.2278937,7.47723619 L0.0957729162,7.47723619" id="Line-4"></path>
                        <path d="M15.2278937,11.1778938 L3.92668956,14.8795276" id="Line-5"></path>
                    </g>
                    <g id="right-cheek" transform="translate(35.329565, 22.559842)" stroke="#07006F" stroke-linecap="square" stroke-width="0.5">
                        <path d="M0.946269155,4.61727366 L13.1004252,0.301747346" id="Line-6"></path>
                        <path d="M0.0950128137,7.46948415 L15.8671399,7.46948415" id="Line-7"></path>
                        <path d="M0.946720781,10.9657339 L11.8230014,15.2812602" id="Line-8"></path>
                    </g>
                    <path d="M20.2880871,18.8348524 C20.9181145,18.8348524 24.1622756,16.1873179 24.4510917,15.0231176 C24.7219283,13.9313919 24.4461572,12.890047 23.8043951,12.4762917 C23.1626331,12.0625364 21.8886875,12.343319 21.2498353,13.0765495 C20.8239339,13.5653698 20.514704,14.2142259 20.3221454,15.0231176 C20.1262426,14.2557292 19.9048807,13.6068731 19.6580597,13.0765495 C19.2878282,12.281064 18.1233828,12.0972043 17.3014128,12.4762917 C16.4794427,12.8553791 15.8639398,13.8642102 16.1250825,15.0231176 C16.3513532,16.0272695 19.6580597,18.8348524 20.2880871,18.8348524 Z" id="left-eye" fill="#FF4259"></path>
                    <path d="M32.3765535,18.8972481 C33.0125823,18.8972481 36.2876456,16.2244945 36.5792129,15.0492046 C36.8526293,13.9470796 36.5742313,12.8958154 35.9263562,12.4781189 C35.278481,12.0604223 33.9924004,12.3438796 33.3474629,13.0840944 C32.9175046,13.577571 32.605329,14.2326077 32.4109363,15.0492046 C32.2131674,14.2745064 31.9896969,13.6194697 31.7405248,13.0840944 C31.3667666,12.2810316 30.1912294,12.0954205 29.3614297,12.4781189 C28.5316299,12.8608173 27.910264,13.879258 28.1738942,15.0492046 C28.4023203,16.0629215 31.7405248,18.8972481 32.3765535,18.8972481 Z" id="right-eye" fill="#FF4259"></path>
                    <g id="mouse" transform="translate(20.218727, 27.242074)" stroke="#07006F" stroke-width="0.5">
                        <path d="M6.23692798,0 C6.50840338,3.11625145 6.64414109,4.95692708 6.64414109,5.52202689 C6.64414109,5.61050312 6.06467275,4.57650575 5.15504999,4.19564525 C4.24542723,3.81478475 2.62604812,3.19667792 1.46469701,3.60399327 C0.303345894,4.01130863 -0.398998785,4.77338032 0.421773059,6.25945753 C1.2425449,7.74553475 4.31288521,8.80885923 4.03142793,8.725459 C4.03142793,8.725459 2.15182958,8.725459 1.60639507,8.83316377 C1.06096055,8.94086853 0.00910901499,9.1683908 0.00910901499,10.5695371 C0.00910901499,11.9706835 0.680567839,13.1273595 3.08613008,13.2954907 C4.68983824,13.4075781 6.22496279,12.8947789 7.69150373,11.7570928" id="Path-2"></path>
                    </g>
                    <g id="nose" transform="translate(22.985500, 20.644384)">
                        <ellipse id="Oval-2" fill="#FF4259" cx="3.29884489" cy="3.45212384" rx="3.29884489" ry="3.38376495"></ellipse>
                        <ellipse id="Oval-8" stroke="#FFFFFF" stroke-width="0.5" fill="#FFFFFF" cx="4.25657405" cy="2.93943218" rx="1.06414351" ry="1"></ellipse>
                    </g>
                </g>
            </g>
            <g id="Group-4" transform="translate(11.103273, 34.254780)" stroke="#FF4259" stroke-linecap="square">
                <path d="M5.55163671,0.11811993 L0.11811993,6.02411643" id="Line" stroke-width="0.549008125"></path>
                <path d="M9.09523461,1.29931923 L5.07915699,7.91403531" id="Line-Copy" stroke-width="0.549008125"></path>
                <path d="M11.9301129,2.48051853 L9.56771433,9.09523461" id="Line-Copy-2" stroke-width="0.549008125"></path>
            </g>
            <g id="Group-4-Copy" transform="translate(49.492251, 39.570177) scale(-1, 1) translate(-49.492251, -39.570177) translate(43.468134, 34.963499)" stroke="#FF4259" stroke-linecap="square">
                <path d="M5.55163671,0.11811993 L0.11811993,6.02411643" id="Line" stroke-width="0.549008125"></path>
                <path d="M9.09523461,1.29931923 L5.07915699,7.91403531" id="Line-Copy" stroke-width="0.549008125"></path>
                <path d="M11.9301129,2.48051853 L9.56771433,9.09523461" id="Line-Copy-2" stroke-width="0.549008125"></path>
            </g>
        </g>
        <g id="Gear" transform="translate(54.600000, 55.784560) rotate(15.000000) translate(-54.600000, -55.784560) translate(41.983989, 42.285287)" fill="#FFFFFF" stroke="#461B14" stroke-width="1.40761874">
            <path d="M18.1253075,19.6004413 C17.3231677,20.4244547 16.3522588,21.0717162 15.2712274,21.4813354 C15.2743032,21.5360606 15.2758624,21.5912063 15.2758624,21.6467281 C15.2758624,23.1981608 14.0584067,24.4558455 12.556599,24.4558455 C11.0547912,24.4558455 9.83733549,23.1981608 9.83733549,21.6467281 C9.83733549,21.5912063 9.83889474,21.5360606 9.84197046,21.4813354 C8.73324446,21.0612223 7.74035552,20.3911346 6.92657428,19.5367638 C6.49902809,19.8260725 5.98779562,19.9943061 5.43852694,19.9943061 C3.93671919,19.9943061 2.71926347,18.7366214 2.71926347,17.1851887 C2.71926347,15.9095427 3.54235407,14.8324922 4.66982887,14.4898835 C4.64925149,14.248245 4.63874356,14.0036031 4.63874356,13.7564131 C4.63874356,13.0580023 4.72262718,12.3799332 4.8805046,11.7324739 C3.93625314,11.2920241 3.27911183,10.3107607 3.27911183,9.17094207 C3.27911183,7.61950938 4.49656755,6.36182468 5.9983753,6.36182468 C6.72261326,6.36182468 7.38072248,6.65431107 7.86805502,7.13117797 C8.47714345,6.66574278 9.15274225,6.2886789 9.8773091,6.01819984 C9.85103114,5.86140902 9.83733549,5.7001636 9.83733549,5.53561368 C9.83733549,3.98418099 11.0547912,2.72649629 12.556599,2.72649629 C14.0584067,2.72649629 15.2758624,3.98418099 15.2758624,5.53561368 C15.2758624,5.7001636 15.2621668,5.86140902 15.2358888,6.01819984 C16.0394703,6.31817489 16.7828214,6.74924861 17.4420122,7.2865755 C17.9033434,6.91421067 18.483998,6.69230908 19.1148226,6.69230908 C20.6166304,6.69230908 21.8340861,7.94999378 21.8340861,9.50142647 C21.8340861,10.614093 21.2078799,11.5756684 20.2996796,12.0305665 C20.4141886,12.5870657 20.4744543,13.1644322 20.4744543,13.7564131 C20.4744543,14.0215311 20.4623669,14.2837178 20.4387331,14.5424118 C21.4856856,14.9331299 22.2339778,15.9688853 22.2339778,17.1851887 C22.2339778,18.7366214 21.016522,19.9943061 19.5147143,19.9943061 C19.0070776,19.9943061 18.5319298,19.8506087 18.1253075,19.6004413 Z" id="Combined-Shape-Copy"></path>
            <ellipse id="Oval-3" cx="12.4366314" cy="13.7151026" rx="4.27884105" ry="4.37891829"></ellipse>
        </g>
    </g>
</svg>