<?xml version="1.0" encoding="UTF-8"?>
<svg width="70px" height="70px" viewBox="0 0 70 70" version="1.1" xmlns="http://www.w3.org/2000/svg" xmlns:xlink="http://www.w3.org/1999/xlink">
    <!-- Generator: Sketch 50.2 (55047) - http://www.bohemiancoding.com/sketch -->
    <title>Chibimaruko</title>
    <desc>Created with Sketch.</desc>
    <defs></defs>
    <g id="Chibimaruko" stroke="none" stroke-width="1" fill="none" fill-rule="evenodd">
        <g transform="translate(4.697211, 9.159330)" id="Group-4">
            <g>
                <path d="M30.7486116,43.6674355 C36.7300665,43.6674355 42.7284687,38.7931087 52.6208588,38.7931087 C54.2965545,38.7931087 61.1725506,41.0847257 60.9411751,40.3010243 C60.3247595,38.2131372 58.3314402,34.6573127 57.3079657,24.5058887 C57.085675,22.3010788 55.1058866,13.5252343 53.6088228,11.3132834 C52.111759,9.10133253 49.646738,5.26055781 46.2245585,3.36711739 C42.802379,1.47367697 33.6474597,0.0256778298 28.895683,0.0256778298 C13.0682409,0.0256778298 1.50105461,13.3050457 1.50105461,27.3088671 C1.50105461,32.8939805 0.685753906,38.0364003 0.0602857477,41.2334698 C-0.0365283117,41.7283332 3.66326304,40.4213806 4.65426819,40.3010243 C7.87592349,39.9097581 11.7880666,39.8961483 14.0353979,40.3010243 C19.8776667,41.3535591 25.5083484,43.6674355 30.7486116,43.6674355 Z" id="Oval-11" fill="#000000"></path>
                <path d="M30.0210921,51.2128282 C37.2338464,51.2128282 46.6402329,49.0507771 50.9315272,44.3956975 C52.7130928,42.4631036 50.5202752,38.9873037 50.9315272,35.8200275 C51.3041044,32.9506073 52.7870869,25.4471713 52.7870869,22.9863257 C52.7870869,11.2664055 43.8867248,6.73726148 30.9667055,6.73726148 C23.1036443,6.73726148 15.5285382,7.80002919 10.8293899,13.3162276 C8.60360503,15.9290139 6.92629861,20.9245909 6.92629861,24.7166518 C6.92629861,26.22221 7.10773214,26.6015182 7.57294104,27.948379 C9.83811725,34.5064591 6.58669399,40.7523717 9.83334151,44.3956975 C14.1219336,49.2082736 22.6678166,51.2128282 30.0210921,51.2128282 Z" id="Oval-10" stroke="#FFAAAA" stroke-width="0.5" fill="#FFCCCC"></path>
                <ellipse id="Oval-12" stroke="#000000" stroke-width="0.5" fill="#000000" cx="36.9009257" cy="31.0662613" rx="3.37737286" ry="3.36863074"></ellipse>
                <path d="M10.2425,20.7172193 C11.3141895,22.5263582 12.3731712,24.3378042 13.419445,26.1515575 L15.7798258,17.9389815 L20.4122964,24.0870758 L22.7211315,14.7113608 L26.3584145,21.9736362 L31.5629904,12.6386336 L36.5552596,21.9736362 L40.7054469,14.7113608 L42.6202899,23.2331452 L48.000427,17.0123869 L48.000427,24.7503279 L50.7624553,21.9736362 L51.6127674,32.3784847 L54.5012985,17.9389815 L48.7930046,7.89846834 L34.4898626,3.5881028 L18.6668904,3.5881028 L10.2425,10.3468838 L8.00562456,17.0123869 C8.42518536,17.6731362 9.17081051,18.9080803 10.2425,20.7172193 Z" id="Path-3" fill="#000000"></path>
                <ellipse id="Oval-12" stroke="#000000" stroke-width="0.5" fill="#000000" cx="20.8896766" cy="31.0662613" rx="3.37737286" ry="3.36863074"></ellipse>
                <ellipse id="Oval-13" stroke="#FFFFFF" stroke-width="0.5" fill="#FFFFFF" cx="20.8896766" cy="29.8186203" rx="1.37596672" ry="1.37240512"></ellipse>
                <ellipse id="Oval-13" stroke="#FFFFFF" stroke-width="0.5" fill="#FFFFFF" cx="36.9009257" cy="29.8186203" rx="1.37596672" ry="1.37240512"></ellipse>
                <path d="M6.64939414,40.7643374 C9.0742221,40.9615762 10.026767,38.3624094 10.026767,35.399481 C10.026767,32.4365527 9.06931343,30.0346247 7.2040419,30.0346247 C6.76189738,30.0346247 5.89449944,29.5382197 4.52290012,30.0346247 C3.83491393,30.2836185 3.49802145,30.818456 3.27202128,31.4461329 C2.8670942,32.5707488 3.476694,34.1024236 3.476694,35.5785804 C3.476694,37.8689632 4.22456618,40.5670986 6.64939414,40.7643374 Z" id="Oval-14" fill="#FFCCCC"></path>
                <path d="M52.4141251,40.7456003 C54.8957521,40.7456003 56.120769,38.3779873 56.120769,35.5528695 C56.120769,34.2693482 57.1713821,32.6646308 56.5397235,31.6444213 C55.7810584,30.4190803 54.0831214,30.4190803 53.1623506,30.2175761 C51.8394236,29.9280628 49.7849777,32.2265675 49.7849777,35.0516853 C49.7849777,37.876803 49.9324981,40.7456003 52.4141251,40.7456003 Z" id="Oval-15" fill="#FFCCCC"></path>
                <path d="M11.4220374,25.6590921 C13.361937,23.2790189 15.0284997,21.7250343 16.4217254,20.9971384 C17.8149511,20.2692425 19.1374843,20.9639826 20.3893251,23.0813588" id="Line-13" stroke="#000000" stroke-width="0.836653386" stroke-linecap="square"></path>
                <path d="M37.0260136,22.2216625 C39.120108,20.627465 40.6438495,20.1160632 41.5972381,20.6874571 C42.5506266,21.258851 43.6954267,22.9160627 45.0316382,25.6590921" id="Line-14" stroke="#000000" stroke-width="0.836653386" stroke-linecap="square"></path>
                <g id="cheek" transform="translate(10.757558, 37.928287)" fill="#FF495F">
                    <ellipse id="Oval-16" cx="3.8777244" cy="3.86768715" rx="3.8777244" ry="3.86768715"></ellipse>
                    <ellipse id="Oval-16" cx="34.6493438" cy="3.86768715" rx="3.8777244" ry="3.86768715"></ellipse>
                </g>
                <path d="M29.8369304,48.0757475 C31.2977865,48.0757475 32.9015147,47.5534128 33.62967,46.8136205 C34.3578254,46.0738283 35.2210538,44.4641893 34.8749077,42.9105033 C34.7323909,42.2708128 24.8346435,42.2682623 24.7879441,42.8344705 C24.6246602,44.8142108 25.4649147,46.4432738 26.2383897,46.9647645 C27.0118646,47.4862553 28.3760743,48.0757475 29.8369304,48.0757475 Z" id="Oval-17" fill="#FF3E56"></path>
            </g>
        </g>
        <g id="Gear" transform="translate(53.806854, 16.201256) rotate(15.000000) translate(-53.806854, -16.201256) translate(42.651475, 4.488109)" fill="#FFFFFF" stroke="#461B14" stroke-width="1.40761874">
            <path d="M15.9502706,16.6966723 C15.2443876,17.3986095 14.3899877,17.9499805 13.4386802,18.2989153 C13.4413868,18.3455331 13.4427589,18.392509 13.4427589,18.4398054 C13.4427589,19.7613963 12.3713979,20.8327573 11.0498071,20.8327573 C9.72821627,20.8327573 8.65685523,19.7613963 8.65685523,18.4398054 C8.65685523,18.392509 8.65822737,18.3455331 8.66093401,18.2989153 C7.68525512,17.9410412 6.81151286,17.3702258 6.09538537,16.6424284 C5.71914472,16.8888766 5.26926015,17.0321867 4.7859037,17.0321867 C3.46431289,17.0321867 2.39295185,15.9608257 2.39295185,14.6392349 C2.39295185,13.5525734 3.11727159,12.635086 4.10944941,12.3432341 C4.09134131,12.1373939 4.08209434,11.9289953 4.08209434,11.718426 C4.08209434,11.1234834 4.15591192,10.545869 4.29484405,9.99432966 C3.46390277,9.6191316 2.88561841,8.78324057 2.88561841,7.81228399 C2.88561841,6.49069317 3.95697945,5.41933214 5.27857026,5.41933214 C5.91589967,5.41933214 6.49503579,5.66848721 6.92388842,6.07470716 C7.45988624,5.67822533 8.05441318,5.35702277 8.69203201,5.12661468 C8.6689074,4.99305213 8.65685523,4.85569492 8.65685523,4.71552277 C8.65685523,3.39393195 9.72821627,2.32257092 11.0498071,2.32257092 C12.3713979,2.32257092 13.4427589,3.39393195 13.4427589,4.71552277 C13.4427589,4.85569492 13.4307068,4.99305213 13.4075821,5.12661468 C14.1147339,5.38214898 14.7688829,5.74935993 15.3489708,6.20708283 C15.7549422,5.88988317 16.2659182,5.70085588 16.8210439,5.70085588 C18.1426347,5.70085588 19.2139958,6.77221692 19.2139958,8.09380773 C19.2139958,9.04163481 18.6629343,9.86075459 17.863718,10.2482604 C17.964486,10.7223152 18.0175198,11.214146 18.0175198,11.718426 C18.0175198,11.9442672 18.0068829,12.1676115 17.9860851,12.3879804 C18.9074034,12.7208144 19.5659004,13.6031245 19.5659004,14.6392349 C19.5659004,15.9608257 18.4945394,17.0321867 17.1729486,17.0321867 C16.7262283,17.0321867 16.3080982,16.9097778 15.9502706,16.6966723 Z" id="Combined-Shape-Copy"></path>
            <ellipse id="Oval-3" cx="10.9442357" cy="11.6832355" rx="3.76538012" ry="3.73018965"></ellipse>
        </g>
    </g>
</svg>